# Blender v2.90.1 OBJ File: 'cube_edge.blend'
# www.blender.org
mtllib side_block.mtl
o Cube.005_Cube.007
v 1.688273 -8.000000 -1.688273
v 1.688273 -8.000000 1.688273
v -1.688273 -8.000000 -1.688273
v -1.688273 -8.000000 1.688273
v 1.688273 -5.458745 1.688273
v -1.688273 -5.458745 1.688273
v 1.688273 -5.458745 -1.688273
v -1.688273 -5.458745 -1.688273
vt 0.000000 0.000000
vt 0.000000 0.363036
vt 0.000000 0.363036
vt 0.000000 0.000000
vt 1.000000 0.363036
vt 1.000000 0.000000
vt 0.000000 0.987379
vt 1.000000 0.987379
vt 1.000000 0.971300
vt 0.000000 0.971300
vt 1.000000 0.000000
vt 1.000000 0.363036
vt 0.250000 0.625000
vt 0.250000 0.625000
vt 0.250000 0.625000
vt 0.250000 0.625000
vn 0.0000 0.0000 1.0000
vn -1.0000 0.0000 -0.0000
vn 0.0000 -1.0000 0.0000
vn 1.0000 0.0000 0.0000
vn 0.0000 0.0000 -1.0000
vn 0.0000 1.0000 -0.0000
usemtl block
s off
f 2/1/1 5/2/1 6/3/1 4/4/1
f 4/4/2 6/3/2 8/5/2 3/6/2
f 3/7/3 1/8/3 2/9/3 4/10/3
f 1/11/4 7/12/4 5/2/4 2/1/4
f 3/6/5 8/5/5 7/12/5 1/11/5
f 5/13/6 7/14/6 8/15/6 6/16/6
